# xmcd
#
# Track frame offsets: 
#        150
#        14868
#        30795
#        43078
#        58288
#        74328
#        89294
#        110471
#        131745
#        147703
#        164003
#        177156
#        188571
#        200810
#        214886
#        231218
#        249538
#        262450
#        280018
#        295295
#
# Disc length: 4269 seconds
#
# Revision: 0
# Processed by: cddbd v1.5.2PL0 Copyright (c) Steve Scherf et al.
# Submitted via: ExactAudioCopy v0.99pb5
#
DISCID=4710ab14
DTITLE=Aretha Franklin  - 100 Hits Legends - CD4
DYEAR=1900
DGENRE=
TTITLE0=01 Rock Steady
TTITLE1=02 Spanish Harlem
TTITLE2=03 That's All I Want From You
TTITLE3=04 Border Song
TTITLE4=05 You And Me
TTITLE5=06 Honest I Do
TTITLE6=07 The Thrill Is Gone
TTITLE7=08 Dark End Of The Street
TTITLE8=09 Let It Be
TTITLE9=10 You're All i Need To Get By
TTITLE10=11 Oh No Not My Baby
TTITLE11=12 Try Matty's
TTITLE12=13 When The battle Is Over
TTITLE13=14 Why I Sing The Blues
TTITLE14=15 Pullin
TTITLE15=16 This Girl's In Love With You
TTITLE16=17 One Way Ticket
TTITLE17=18 Sit Down And Cry
TTITLE18=19 It Ain't Fair
TTITLE19=20 Bridge Over Troubled Water
EXTD=
EXTT0=
EXTT1=
EXTT2=
EXTT3=
EXTT4=
EXTT5=
EXTT6=
EXTT7=
EXTT8=
EXTT9=
EXTT10=
EXTT11=
EXTT12=
EXTT13=
EXTT14=
EXTT15=
EXTT16=
EXTT17=
EXTT18=
EXTT19=
PLAYORDER=
